<svg width="1193" height="428" viewBox="0 0 1193 428" fill="none" xmlns="http://www.w3.org/2000/svg">
<mask id="mask0_9_39" style="mask-type:alpha" maskUnits="userSpaceOnUse" x="0" y="103" width="214" height="214">
<rect width="214" height="214" transform="matrix(-1 0 0 1 214 103)" fill="#D9D9D9"/>
</mask>
<g mask="url(#mask0_9_39)">
<path d="M102.36 103.096C82.1923 102.113 62.3528 108.48 46.5229 121.014C30.6929 133.549 19.9473 151.4 16.28 171.256L-11.176 305.112L29.88 385.192L-34.744 419.992L-34.92 420.872V419.592L-157.32 407.912C-163.24 407.432 -168.36 412.072 -168.2 417.992V453.032C-168.2 480.552 -145.96 502.952 -118.28 502.952H7.75201L19.64 513.432L31.528 502.936H52.28C56.488 502.936 60.648 502.776 64.76 502.488L78.92 509.912L87.688 499.176C160.552 483.368 215 419.848 215 343.736C215 308.216 202.84 274.616 182.04 247.576C174.68 238.296 172.76 225.816 176.76 214.616C180.28 204.696 182.04 193.656 181.56 182.296C180.673 161.575 172.045 141.942 157.379 127.277C142.714 112.611 123.081 103.983 102.36 103.096Z" fill="#60BC6D"/>
<path d="M137.08 197.176C137.08 204.644 140.047 211.807 145.328 217.088C150.609 222.369 157.771 225.336 165.24 225.336C172.708 225.336 179.871 222.369 185.152 217.088C190.433 211.807 193.4 204.644 193.4 197.176C193.4 189.707 190.433 182.545 185.152 177.264C179.871 171.983 172.708 169.016 165.24 169.016C157.771 169.016 150.609 171.983 145.328 177.264C140.047 182.545 137.08 189.707 137.08 197.176ZM95.6399 526.936L87.7999 499.144C80.2799 500.776 72.5999 501.896 64.7279 502.488L71.6399 526.936H51.6399C45.0799 526.936 39.6399 532.376 39.6399 538.936C39.6399 545.496 45.0799 550.936 51.6399 550.936H139.64C142.822 550.936 145.875 549.672 148.125 547.421C150.376 545.171 151.64 542.119 151.64 538.936C151.64 535.753 150.376 532.701 148.125 530.451C145.875 528.2 142.822 526.936 139.64 526.936H95.6399Z" fill="#FF822D"/>
<path d="M137.56 191.736L182.52 212.216C184.386 213.074 185.966 214.45 187.072 216.181C188.178 217.911 188.764 219.922 188.76 221.976V225.816C188.76 230.296 193.88 232.856 197.4 230.296C202.824 226.483 207.156 221.315 209.963 215.308C212.77 209.301 213.955 202.663 213.4 196.056C211.8 177.016 196.12 161.816 177.08 161.016C167.908 160.565 158.877 163.416 151.627 169.052C144.376 174.688 139.386 182.736 137.56 191.736ZM113.048 303.448C110.118 289.2 102.36 276.401 91.0839 267.212C79.8079 258.024 65.7057 253.009 51.1599 253.016C21.0799 253.016 -4.6801 273.976 -10.7601 303.416L-41.1441 451.736H-37.8001V451.896C-2.37608 447.16 41.2719 439.944 66.7919 417.464C97.2239 390.632 106.792 345.464 113.048 303.448ZM31.6399 502.936V526.936H75.6399C78.8225 526.936 81.8747 528.2 84.1252 530.451C86.3756 532.701 87.6399 535.753 87.6399 538.936C87.6399 542.119 86.3756 545.171 84.1252 547.421C81.8747 549.672 78.8225 550.936 75.6399 550.936H-12.3601C-18.9201 550.936 -24.3601 545.496 -24.3601 538.936C-24.3601 532.376 -18.9201 526.936 -12.3601 526.936H7.63992V502.936H31.6399Z" fill="#FFB02E"/>
<path d="M-37.8 451.896C39.96 441.496 101.56 380.536 113.08 303.256C113.56 305.336 113.88 307.576 114.04 309.656C114.68 315.736 115 321.816 115 327.896C115 417.336 48.44 491.256 -37.8 502.776C-45 502.776 -50.28 496.216 -48.84 489.176L-41.16 451.736H-37.8V451.896Z" fill="#00A6ED"/>
<path d="M97.88 209.24C93.0053 209.24 88.1784 208.28 83.6748 206.414C79.1712 204.549 75.0791 201.815 71.6322 198.368C68.1853 194.921 65.451 190.829 63.5856 186.325C61.7201 181.822 60.76 176.995 60.76 172.12C60.76 167.245 61.7201 162.418 63.5856 157.915C65.451 153.411 68.1853 149.319 71.6322 145.872C75.0791 142.425 79.1712 139.691 83.6748 137.826C88.1784 135.96 93.0053 135 97.88 135C107.725 135 117.166 138.911 124.128 145.872C131.089 152.834 135 162.275 135 172.12C135 181.965 131.089 191.406 124.128 198.368C117.166 205.329 107.725 209.24 97.88 209.24Z" fill="#E6E6E6"/>
<path d="M97.88 188.76C93.4668 188.76 89.2344 187.007 86.1138 183.886C82.9931 180.766 81.24 176.533 81.24 172.12C81.24 167.707 82.9931 163.474 86.1138 160.354C89.2344 157.233 93.4668 155.48 97.88 155.48C102.293 155.48 106.526 157.233 109.646 160.354C112.767 163.474 114.52 167.707 114.52 172.12C114.52 176.533 112.767 180.766 109.646 183.886C106.526 187.007 102.293 188.76 97.88 188.76Z" fill="#212121"/>
</g>
<path d="M372.689 282.299H438.375V314H332.706V114.656H372.689V282.299ZM453.507 234.32C453.507 218.326 456.649 204.142 462.932 191.766C469.405 179.391 478.068 169.871 488.921 163.207C499.964 156.543 512.244 153.211 525.762 153.211C537.567 153.211 547.848 155.591 556.606 160.351C565.555 165.111 572.695 171.108 578.026 178.343V155.782H618.294V314H578.026V290.867C572.885 298.292 565.745 304.48 556.606 309.431C547.658 314.19 537.281 316.57 525.477 316.57C512.149 316.57 499.964 313.143 488.921 306.289C478.068 299.435 469.405 289.82 462.932 277.444C456.649 264.878 453.507 250.503 453.507 234.32ZM578.026 234.891C578.026 225.181 576.122 216.898 572.314 210.044C568.506 203 563.365 197.669 556.892 194.051C550.418 190.243 543.469 188.339 536.044 188.339C528.618 188.339 521.764 190.148 515.481 193.765C509.198 197.383 504.057 202.714 500.059 209.759C496.251 216.613 494.347 224.8 494.347 234.32C494.347 243.839 496.251 252.217 500.059 259.452C504.057 266.496 509.198 271.923 515.481 275.731C521.954 279.538 528.809 281.442 536.044 281.442C543.469 281.442 550.418 279.634 556.892 276.016C563.365 272.208 568.506 266.877 572.314 260.023C576.122 252.978 578.026 244.601 578.026 234.891ZM745.022 153.497C763.871 153.497 779.102 159.494 790.716 171.489C802.331 183.294 808.138 199.858 808.138 221.182V314H768.155V226.609C768.155 214.043 765.013 204.428 758.73 197.764C752.447 190.909 743.879 187.482 733.027 187.482C721.984 187.482 713.226 190.909 706.752 197.764C700.469 204.428 697.328 214.043 697.328 226.609V314H657.345V155.782H697.328V175.487C702.659 168.633 709.418 163.302 717.605 159.494C725.982 155.496 735.121 153.497 745.022 153.497ZM835.878 234.32C835.878 218.326 839.02 204.142 845.303 191.766C851.776 179.391 860.534 169.871 871.577 163.207C882.62 156.543 894.901 153.211 908.419 153.211C918.7 153.211 928.505 155.496 937.835 160.065C947.164 164.445 954.589 170.347 960.111 177.772V102.661H1000.67V314H960.111V290.581C955.161 298.388 948.211 304.671 939.263 309.431C930.314 314.19 919.938 316.57 908.133 316.57C894.805 316.57 882.62 313.143 871.577 306.289C860.534 299.435 851.776 289.82 845.303 277.444C839.02 264.878 835.878 250.503 835.878 234.32ZM960.397 234.891C960.397 225.181 958.493 216.898 954.685 210.044C950.877 203 945.736 197.669 939.263 194.051C932.789 190.243 925.84 188.339 918.414 188.339C910.989 188.339 904.135 190.148 897.852 193.765C891.569 197.383 886.428 202.714 882.43 209.759C878.622 216.613 876.718 224.8 876.718 234.32C876.718 243.839 878.622 252.217 882.43 259.452C886.428 266.496 891.569 271.923 897.852 275.731C904.325 279.538 911.179 281.442 918.414 281.442C925.84 281.442 932.789 279.634 939.263 276.016C945.736 272.208 950.877 266.877 954.685 260.023C958.493 252.978 960.397 244.601 960.397 234.891ZM1191.08 155.782L1093.12 388.825H1050.57L1084.84 310.002L1021.44 155.782H1066.28L1107.12 266.306L1148.53 155.782H1191.08Z" fill="#596FBE"/>
</svg>
